<svg width="1200" height="900" viewBox="0 0 1200 900" fill="none" xmlns="http://www.w3.org/2000/svg">
<rect width="1200" height="900" fill="#0F0F0E"/>
<circle cx="160" cy="140" r="180" fill="#D49C62" fill-opacity="0.14"/>
<rect x="74" y="74" width="1052" height="752" rx="42" fill="#141412" stroke="#2A241F"/>
<rect x="122" y="124" width="956" height="652" rx="32" fill="#181714"/>
<rect x="178" y="180" width="598" height="542" rx="28" fill="#1F1C18"/>
<rect x="816" y="180" width="206" height="162" rx="24" fill="#1C1A17"/>
<rect x="816" y="372" width="206" height="350" rx="24" fill="#171614"/>
<rect x="234" y="236" width="154" height="154" rx="22" fill="#27231D"/>
<rect x="420" y="236" width="154" height="154" rx="22" fill="#27231D"/>
<rect x="234" y="422" width="154" height="154" rx="22" fill="#D49C62" fill-opacity="0.22"/>
<rect x="420" y="422" width="154" height="154" rx="22" fill="#27231D"/>
<rect x="602" y="236" width="118" height="340" rx="22" fill="#221E19"/>
<rect x="854" y="418" width="130" height="262" rx="20" fill="#24201B"/>
</svg>
