<svg width="1600" height="1200" viewBox="0 0 1600 1200" fill="none" xmlns="http://www.w3.org/2000/svg">
<rect width="1600" height="1200" fill="#0B0B0A"/>
<rect width="1600" height="1200" fill="url(#paint0_linear_1_2)"/>
<circle cx="1236" cy="220" r="240" fill="#D49C62" fill-opacity="0.16"/>
<circle cx="284" cy="954" r="300" fill="#F4E5D2" fill-opacity="0.05"/>
<rect x="120" y="150" width="1360" height="900" rx="54" fill="#11110F" stroke="#2D2822"/>
<rect x="184" y="214" width="780" height="772" rx="38" fill="url(#paint1_linear_1_2)"/>
<rect x="1008" y="214" width="408" height="372" rx="32" fill="#171613"/>
<rect x="1008" y="614" width="408" height="372" rx="32" fill="#141412"/>
<rect x="1050" y="248" width="324" height="288" rx="24" fill="url(#paint2_linear_1_2)"/>
<rect x="1050" y="652" width="324" height="170" rx="24" fill="#1D1B18"/>
<rect x="1050" y="842" width="324" height="104" rx="24" fill="#191815"/>
<path d="M404 804C404 704.589 484.589 624 584 624H612C711.411 624 792 704.589 792 804V986H404V804Z" fill="#0F0F0E"/>
<circle cx="598" cy="518" r="104" fill="#171614"/>
<path d="M458 588L526 732L458 986H378L430 706L374 614L458 588Z" fill="#151412"/>
<path d="M748 588L680 732L748 986H828L776 706L832 614L748 588Z" fill="#151412"/>
<rect x="533" y="656" width="132" height="226" rx="64" fill="#D49C62"/>
<rect x="566" y="626" width="66" height="86" rx="33" fill="#E7C7A1"/>
<rect x="330" y="548" width="200" height="34" rx="17" transform="rotate(-18 330 548)" fill="#26221C"/>
<rect x="674" y="548" width="200" height="34" rx="17" transform="rotate(18 674 548)" fill="#26221C"/>
<rect x="248" y="868" width="620" height="42" rx="21" fill="#191816"/>
<rect x="248" y="924" width="620" height="18" rx="9" fill="#D49C62" fill-opacity="0.38"/>
<defs>
<linearGradient id="paint0_linear_1_2" x1="800" y1="0" x2="800" y2="1200" gradientUnits="userSpaceOnUse">
<stop stop-color="#11100E"/>
<stop offset="1" stop-color="#090909"/>
</linearGradient>
<linearGradient id="paint1_linear_1_2" x1="574" y1="214" x2="574" y2="986" gradientUnits="userSpaceOnUse">
<stop stop-color="#1D1A16"/>
<stop offset="1" stop-color="#12110F"/>
</linearGradient>
<linearGradient id="paint2_linear_1_2" x1="1212" y1="248" x2="1212" y2="536" gradientUnits="userSpaceOnUse">
<stop stop-color="#25211C"/>
<stop offset="1" stop-color="#181714"/>
</linearGradient>
</defs>
</svg>
