<svg width="1400" height="900" viewBox="0 0 1400 900" fill="none" xmlns="http://www.w3.org/2000/svg">
<rect width="1400" height="900" fill="#100F0E"/>
<circle cx="1148" cy="148" r="170" fill="#D49C62" fill-opacity="0.14"/>
<rect x="108" y="98" width="1184" height="704" rx="44" fill="#171613" stroke="#2D2721"/>
<path d="M470 610C470 497.886 560.886 407 673 407H691C803.114 407 894 497.886 894 610V760H470V610Z" fill="#0F0F0E"/>
<circle cx="682" cy="314" r="94" fill="#191815"/>
<rect x="620" y="440" width="128" height="216" rx="64" fill="#D49C62"/>
<rect x="426" y="404" width="220" height="30" rx="15" transform="rotate(-18 426 404)" fill="#27231D"/>
<rect x="722" y="404" width="220" height="30" rx="15" transform="rotate(18 722 404)" fill="#27231D"/>
<rect x="228" y="648" width="286" height="34" rx="17" fill="#1E1B17"/>
<rect x="932" y="234" width="220" height="302" rx="26" fill="#1D1A16"/>
<rect x="968" y="270" width="148" height="230" rx="20" fill="#26221C"/>
</svg>
